<svg width="23" height="19" viewBox="0 0 23 19" fill="none" xmlns="http://www.w3.org/2000/svg">
<path d="M0.792377 7.81312e-05C0.688852 -0.00138597 0.586069 0.0177399 0.49 0.0563444C0.393931 0.0949489 0.306492 0.152262 0.232766 0.224953C0.15904 0.297644 0.100496 0.384263 0.0605367 0.479777C0.0205776 0.57529 0 0.677793 0 0.781328C0 0.884863 0.0205776 0.987366 0.0605367 1.08288C0.100496 1.17839 0.15904 1.26501 0.232766 1.3377C0.306492 1.41039 0.393931 1.46771 0.49 1.50631C0.586069 1.54492 0.688852 1.56404 0.792377 1.56258H2.22772C2.60685 1.56258 2.92289 1.82452 2.99473 2.19734L3.15037 3.01115L4.82985 11.8317C5.13356 13.4232 6.53568 14.5834 8.15627 14.5834H17.9076C19.5282 14.5834 20.931 13.4236 21.2341 11.8317L22.9136 3.01115C22.9351 2.89821 22.9314 2.78191 22.9029 2.67055C22.8743 2.55918 22.8215 2.4555 22.7482 2.36689C22.675 2.27828 22.5831 2.20693 22.4791 2.15793C22.3751 2.10893 22.2615 2.08348 22.1465 2.08341H4.56333L4.52976 1.90539C4.3198 0.805043 3.34809 7.81312e-05 2.22772 7.81312e-05H0.792377ZM4.86139 3.64591H21.2025L19.699 11.5398C19.5344 12.4042 18.7881 13.0209 17.9076 13.0209H8.15627C7.27613 13.0209 6.53028 12.4041 6.36489 11.5398V11.5388L4.86139 3.64591ZM9.38613 15.6251C8.97173 15.6251 8.5743 15.7897 8.28127 16.0827C7.98825 16.3757 7.82363 16.7732 7.82363 17.1876C7.82363 17.602 7.98825 17.9994 8.28127 18.2924C8.5743 18.5855 8.97173 18.7501 9.38613 18.7501C9.80053 18.7501 10.198 18.5855 10.491 18.2924C10.784 17.9994 10.9486 17.602 10.9486 17.1876C10.9486 16.7732 10.784 16.3757 10.491 16.0827C10.198 15.7897 9.80053 15.6251 9.38613 15.6251ZM16.6778 15.6251C16.2634 15.6251 15.866 15.7897 15.5729 16.0827C15.2799 16.3757 15.1153 16.7732 15.1153 17.1876C15.1153 17.602 15.2799 17.9994 15.5729 18.2924C15.866 18.5855 16.2634 18.7501 16.6778 18.7501C17.0922 18.7501 17.4896 18.5855 17.7826 18.2924C18.0757 17.9994 18.2403 17.602 18.2403 17.1876C18.2403 16.7732 18.0757 16.3757 17.7826 16.0827C17.4896 15.7897 17.0922 15.6251 16.6778 15.6251Z" fill="#7F7F7F"/>
</svg>
