<svg width="21" height="19" viewBox="0 0 21 19" fill="none" xmlns="http://www.w3.org/2000/svg">
<path d="M5.72917 0C2.57419 0 0 2.57419 0 5.72917C0 7.86258 1.60815 9.8713 3.56852 11.9314C5.5289 13.9914 7.94186 16.0778 9.8643 18.0003C10.0108 18.1467 10.2095 18.229 10.4167 18.229C10.6238 18.229 10.8225 18.1467 10.969 18.0003C12.8915 16.0778 15.3044 13.9914 17.2648 11.9314C19.2252 9.8713 20.8333 7.86258 20.8333 5.72917C20.8333 2.57419 18.2591 0 15.1042 0C13.2935 0 11.7171 0.972129 10.4167 2.62349C9.11624 0.972129 7.53981 0 5.72917 0ZM5.72917 1.5625C7.25446 1.5625 8.52412 2.37417 9.75647 4.32332C9.82694 4.43466 9.92442 4.52637 10.0399 4.58991C10.1553 4.65346 10.2849 4.68678 10.4167 4.68678C10.5484 4.68678 10.6781 4.65346 10.7935 4.58991C10.9089 4.52637 11.0064 4.43466 11.0769 4.32332C12.3092 2.37417 13.5789 1.5625 15.1042 1.5625C17.4148 1.5625 19.2708 3.41852 19.2708 5.72917C19.2708 6.98117 18.0144 8.8787 16.1336 10.8551C14.4185 12.6574 12.2866 14.5403 10.4167 16.3635C8.54671 14.5403 6.4148 12.6574 4.69971 10.8551C2.81894 8.8787 1.5625 6.98117 1.5625 5.72917C1.5625 3.41852 3.41852 1.5625 5.72917 1.5625Z" fill="#7F7F7F"/>
</svg>
