<svg width="97" height="115" viewBox="0 0 97 115" fill="none" xmlns="http://www.w3.org/2000/svg">
<g clip-path="url(#clip0_1_634)">
<path d="M9.92856 12C7.04529 12 4.66882 14.0332 4.66882 16.5V52.5C4.66882 54.9668 7.04529 57 9.92856 57H17.1059C17.9415 61.2539 22.2629 64.5 27.461 64.5C32.6591 64.5 36.9806 61.2539 37.8161 57H54.0885C55.3623 57 56.4923 56.5254 57.3758 55.8281C58.2798 56.5195 59.4372 57 60.7727 57H62.6903C63.5259 61.2539 67.8473 64.5 73.0454 64.5C78.8325 64.5 83.5649 60.4512 83.5649 55.5C83.5649 50.5488 78.8325 46.5 73.0454 46.5C67.8473 46.5 63.5259 49.7461 62.6903 54H60.7727C60.4782 54 60.0057 53.8125 59.6222 53.4844C59.2386 53.1562 59.0195 52.752 59.0195 52.5V24C59.0195 23.748 59.2386 23.3438 59.6222 23.0156C60.0057 22.6875 60.4782 22.5 60.7727 22.5H74.7987C76.2438 22.5 78.2572 23.8887 79.5105 25.2188L79.7297 25.5H71.2922C68.4843 25.5 66.0325 27.4395 66.0325 30V36C66.0325 37.248 66.6899 38.3438 67.6213 39.1406C68.5528 39.9375 69.8334 40.5 71.2922 40.5H88.8247V52.5C88.8247 52.752 88.6055 53.1562 88.222 53.4844C87.8385 53.8125 87.3659 54 87.0714 54H83.5649V57H87.0714C88.5302 57 89.8109 56.4375 90.7423 55.6406C91.6737 54.8438 92.3312 53.748 92.3312 52.5V38.1094C92.3312 36.4219 91.5778 34.875 90.9066 33.7031C90.2355 32.5312 89.5369 31.6875 89.5369 31.6875V31.6406L82.3596 23.3906H82.3048V23.3438C80.7501 21.6797 78.2572 19.5 74.7987 19.5H60.7727C60.1426 19.5 59.5674 19.5996 59.0195 19.7812V16.5C59.0195 14.0332 56.643 12 53.7597 12H9.92856ZM9.92856 15H53.7597C54.7322 15 55.513 15.668 55.513 16.5V52.7812C55.513 53.4785 54.9035 54 54.0885 54H37.8161C36.9806 49.7461 32.6591 46.5 27.461 46.5C22.2629 46.5 17.9415 49.7461 17.1059 54H9.92856C8.95606 54 8.17532 53.332 8.17532 52.5V16.5C8.17532 15.668 8.95606 15 9.92856 15ZM71.2922 28.5H82.3596L86.6879 33.4219L86.7427 33.4688C86.7769 33.5098 87.2495 34.084 87.7837 35.0156C88.2288 35.7891 88.4617 36.709 88.6055 37.5H71.2922C70.9977 37.5 70.5252 37.3125 70.1416 36.9844C69.7581 36.6562 69.539 36.252 69.539 36V30C69.539 29.2617 70.5936 28.5 71.2922 28.5ZM13.4351 30V38.7188H15.7362V35.1094H19.9002V33.6094H15.7362V31.6406H20.448V30H13.4351ZM22.2013 30V38.3906H24.1189V35.1094H26.42C27.9952 35.1094 27.9952 36.1523 28.1733 37.5C28.1733 37.7988 28.1596 38.0918 28.3377 38.3906H30.6388C30.2895 38.0918 30.2553 37.043 30.2553 36.8906C30.2553 34.793 29.2348 34.5 28.8855 34.5C29.4129 34.3477 30.4196 33.7383 30.4196 32.3906C30.4196 30.4395 28.3377 30 27.461 30H22.2013ZM32.7208 30V38.7188H40.2816V37.0312H34.8028V34.9688H39.7338V33.4688H34.8028V31.6406H40.0625V30H32.7208ZM42.6924 30V38.7188H50.2532V37.0312H44.8291V34.9688H49.7054V33.4688H44.8291V31.6406H50.0889V30H42.6924ZM24.2833 31.5H26.7488C27.2761 31.5 28.3377 31.6699 28.3377 32.7188C28.3377 33.9199 27.2761 33.8906 26.7488 33.8906H24.2833V31.5ZM27.461 49.5C31.3579 49.5 34.474 52.166 34.474 55.5C34.474 58.834 31.3579 61.5 27.461 61.5C23.5642 61.5 20.448 58.834 20.448 55.5C20.448 52.166 23.5642 49.5 27.461 49.5ZM73.0454 49.5C76.9423 49.5 80.0584 52.166 80.0584 55.5C80.0584 58.834 76.9423 61.5 73.0454 61.5C69.1486 61.5 66.0325 58.834 66.0325 55.5C66.0325 52.166 69.1486 49.5 73.0454 49.5Z" fill="#E87B16"/>
</g>
<path d="M2.10617 109C1.81284 109 1.56617 108.9 1.36617 108.7C1.16617 108.5 1.06617 108.253 1.06617 107.96V94.42C1.06617 94.1133 1.16617 93.8667 1.36617 93.68C1.56617 93.48 1.81284 93.38 2.10617 93.38H11.1462C11.4528 93.38 11.6995 93.4733 11.8862 93.66C12.0728 93.8333 12.1662 94.0667 12.1662 94.36C12.1662 94.64 12.0728 94.8667 11.8862 95.04C11.6995 95.2133 11.4528 95.3 11.1462 95.3H3.14617V100.16H8.88617C9.19284 100.16 9.43951 100.253 9.62617 100.44C9.81284 100.613 9.90617 100.84 9.90617 101.12C9.90617 101.4 9.81284 101.633 9.62617 101.82C9.43951 101.993 9.19284 102.08 8.88617 102.08H3.14617V107.96C3.14617 108.253 3.04617 108.5 2.84617 108.7C2.64617 108.9 2.39951 109 2.10617 109ZM15.6062 102.16C15.6062 101.36 15.7995 100.647 16.1862 100.02C16.5862 99.38 17.1195 98.8733 17.7862 98.5C18.4528 98.1267 19.1862 97.94 19.9862 97.94C20.7862 97.94 21.3795 98.0733 21.7662 98.34C22.1662 98.5933 22.3195 98.9 22.2262 99.26C22.1862 99.4467 22.1062 99.5933 21.9862 99.7C21.8795 99.7933 21.7528 99.8533 21.6062 99.88C21.4595 99.9067 21.2995 99.9 21.1262 99.86C20.2728 99.6867 19.5062 99.6733 18.8262 99.82C18.1462 99.9667 17.6062 100.24 17.2062 100.64C16.8195 101.04 16.6262 101.547 16.6262 102.16H15.6062ZM15.6262 109C15.3062 109 15.0595 108.92 14.8862 108.76C14.7128 108.587 14.6262 108.333 14.6262 108V99.06C14.6262 98.74 14.7128 98.4933 14.8862 98.32C15.0595 98.1467 15.3062 98.06 15.6262 98.06C15.9595 98.06 16.2062 98.1467 16.3662 98.32C16.5395 98.48 16.6262 98.7267 16.6262 99.06V108C16.6262 108.32 16.5395 108.567 16.3662 108.74C16.2062 108.913 15.9595 109 15.6262 109ZM28.692 109.08C27.5853 109.08 26.5986 108.847 25.732 108.38C24.8786 107.9 24.2053 107.247 23.712 106.42C23.232 105.58 22.992 104.62 22.992 103.54C22.992 102.447 23.2186 101.487 23.672 100.66C24.1386 99.82 24.7786 99.1667 25.592 98.7C26.4053 98.22 27.3386 97.98 28.392 97.98C29.432 97.98 30.3253 98.2133 31.072 98.68C31.8186 99.1333 32.3853 99.7667 32.772 100.58C33.172 101.38 33.372 102.307 33.372 103.36C33.372 103.613 33.2853 103.827 33.112 104C32.9386 104.16 32.7186 104.24 32.452 104.24H24.392V102.64H32.392L31.572 103.2C31.5586 102.533 31.4253 101.94 31.172 101.42C30.9186 100.887 30.5586 100.467 30.092 100.16C29.6253 99.8533 29.0586 99.7 28.392 99.7C27.632 99.7 26.9786 99.8667 26.432 100.2C25.8986 100.533 25.492 100.993 25.212 101.58C24.932 102.153 24.792 102.807 24.792 103.54C24.792 104.273 24.9586 104.927 25.292 105.5C25.6253 106.073 26.0853 106.527 26.672 106.86C27.2586 107.193 27.932 107.36 28.692 107.36C29.1053 107.36 29.5253 107.287 29.952 107.14C30.392 106.98 30.7453 106.8 31.012 106.6C31.212 106.453 31.4253 106.38 31.652 106.38C31.892 106.367 32.0986 106.433 32.272 106.58C32.4986 106.78 32.6186 107 32.632 107.24C32.6453 107.48 32.5386 107.687 32.312 107.86C31.8586 108.22 31.292 108.513 30.612 108.74C29.9453 108.967 29.3053 109.08 28.692 109.08ZM40.7232 109.08C39.6165 109.08 38.6299 108.847 37.7632 108.38C36.9099 107.9 36.2365 107.247 35.7432 106.42C35.2632 105.58 35.0232 104.62 35.0232 103.54C35.0232 102.447 35.2499 101.487 35.7032 100.66C36.1699 99.82 36.8099 99.1667 37.6232 98.7C38.4365 98.22 39.3699 97.98 40.4232 97.98C41.4632 97.98 42.3565 98.2133 43.1032 98.68C43.8499 99.1333 44.4165 99.7667 44.8032 100.58C45.2032 101.38 45.4032 102.307 45.4032 103.36C45.4032 103.613 45.3165 103.827 45.1432 104C44.9699 104.16 44.7499 104.24 44.4832 104.24H36.4232V102.64H44.4232L43.6032 103.2C43.5899 102.533 43.4565 101.94 43.2032 101.42C42.9499 100.887 42.5899 100.467 42.1232 100.16C41.6565 99.8533 41.0899 99.7 40.4232 99.7C39.6632 99.7 39.0099 99.8667 38.4632 100.2C37.9299 100.533 37.5232 100.993 37.2432 101.58C36.9632 102.153 36.8232 102.807 36.8232 103.54C36.8232 104.273 36.9899 104.927 37.3232 105.5C37.6565 106.073 38.1165 106.527 38.7032 106.86C39.2899 107.193 39.9632 107.36 40.7232 107.36C41.1365 107.36 41.5565 107.287 41.9832 107.14C42.4232 106.98 42.7765 106.8 43.0432 106.6C43.2432 106.453 43.4565 106.38 43.6832 106.38C43.9232 106.367 44.1299 106.433 44.3032 106.58C44.5299 106.78 44.6499 107 44.6632 107.24C44.6765 107.48 44.5699 107.687 44.3432 107.86C43.8899 108.22 43.3232 108.513 42.6432 108.74C41.9765 108.967 41.3365 109.08 40.7232 109.08ZM57.8445 109.08C56.9111 109.08 56.0445 108.94 55.2445 108.66C54.4578 108.367 53.8445 108 53.4045 107.56C53.2045 107.347 53.1178 107.107 53.1445 106.84C53.1845 106.56 53.3178 106.333 53.5445 106.16C53.8111 105.947 54.0711 105.86 54.3245 105.9C54.5911 105.927 54.8178 106.04 55.0045 106.24C55.2311 106.493 55.5911 106.733 56.0845 106.96C56.5911 107.173 57.1511 107.28 57.7645 107.28C58.5378 107.28 59.1245 107.153 59.5245 106.9C59.9378 106.647 60.1511 106.32 60.1645 105.92C60.1778 105.52 59.9845 105.173 59.5845 104.88C59.1978 104.587 58.4845 104.347 57.4445 104.16C56.0978 103.893 55.1178 103.493 54.5045 102.96C53.9045 102.427 53.6045 101.773 53.6045 101C53.6045 100.32 53.8045 99.76 54.2045 99.32C54.6045 98.8667 55.1178 98.5333 55.7445 98.32C56.3711 98.0933 57.0245 97.98 57.7045 97.98C58.5845 97.98 59.3645 98.12 60.0445 98.4C60.7245 98.68 61.2645 99.0667 61.6645 99.56C61.8511 99.7733 61.9378 100 61.9245 100.24C61.9111 100.467 61.7978 100.66 61.5845 100.82C61.3711 100.967 61.1178 101.013 60.8245 100.96C60.5311 100.907 60.2845 100.787 60.0845 100.6C59.7511 100.28 59.3911 100.06 59.0045 99.94C58.6178 99.82 58.1711 99.76 57.6645 99.76C57.0778 99.76 56.5778 99.86 56.1645 100.06C55.7645 100.26 55.5645 100.553 55.5645 100.94C55.5645 101.18 55.6245 101.4 55.7445 101.6C55.8778 101.787 56.1311 101.96 56.5045 102.12C56.8778 102.267 57.4245 102.413 58.1445 102.56C59.1445 102.76 59.9311 103.013 60.5045 103.32C61.0911 103.627 61.5111 103.987 61.7645 104.4C62.0178 104.8 62.1445 105.267 62.1445 105.8C62.1445 106.413 61.9778 106.967 61.6445 107.46C61.3245 107.953 60.8445 108.347 60.2045 108.64C59.5778 108.933 58.7911 109.08 57.8445 109.08ZM65.7438 105.02C65.4505 105.02 65.2038 104.927 65.0038 104.74C64.8172 104.54 64.7238 104.293 64.7238 104V94.4C64.7238 94.0933 64.8172 93.8467 65.0038 93.66C65.2038 93.4733 65.4505 93.38 65.7438 93.38C66.0505 93.38 66.2972 93.4733 66.4838 93.66C66.6705 93.8467 66.7638 94.0933 66.7638 94.4V104C66.7638 104.293 66.6705 104.54 66.4838 104.74C66.2972 104.927 66.0505 105.02 65.7438 105.02ZM73.9638 109.02C73.6705 109.02 73.4238 108.927 73.2238 108.74C73.0372 108.54 72.9438 108.293 72.9438 108V103.08C72.9438 102.32 72.8038 101.7 72.5238 101.22C72.2438 100.74 71.8638 100.387 71.3838 100.16C70.9172 99.92 70.3772 99.8 69.7638 99.8C69.2038 99.8 68.6972 99.9133 68.2438 100.14C67.7905 100.367 67.4305 100.673 67.1638 101.06C66.8972 101.433 66.7638 101.867 66.7638 102.36H65.5038C65.5038 101.52 65.7038 100.773 66.1038 100.12C66.5172 99.4533 67.0772 98.9267 67.7838 98.54C68.4905 98.1533 69.2838 97.96 70.1638 97.96C71.0838 97.96 71.9038 98.16 72.6238 98.56C73.3572 98.9467 73.9305 99.52 74.3438 100.28C74.7705 101.04 74.9838 101.973 74.9838 103.08V108C74.9838 108.293 74.8838 108.54 74.6838 108.74C74.4972 108.927 74.2572 109.02 73.9638 109.02ZM65.7438 109.02C65.4505 109.02 65.2038 108.927 65.0038 108.74C64.8172 108.54 64.7238 108.293 64.7238 108V99.08C64.7238 98.7733 64.8172 98.5267 65.0038 98.34C65.2038 98.1533 65.4505 98.06 65.7438 98.06C66.0505 98.06 66.2972 98.1533 66.4838 98.34C66.6705 98.5267 66.7638 98.7733 66.7638 99.08V108C66.7638 108.293 66.6705 108.54 66.4838 108.74C66.2972 108.927 66.0505 109.02 65.7438 109.02ZM79.5962 109C79.3028 109 79.0562 108.907 78.8562 108.72C78.6695 108.52 78.5762 108.273 78.5762 107.98V99.08C78.5762 98.7733 78.6695 98.5267 78.8562 98.34C79.0562 98.1533 79.3028 98.06 79.5962 98.06C79.9028 98.06 80.1495 98.1533 80.3362 98.34C80.5228 98.5267 80.6162 98.7733 80.6162 99.08V107.98C80.6162 108.273 80.5228 108.52 80.3362 108.72C80.1495 108.907 79.9028 109 79.5962 109ZM79.5962 96.28C79.2362 96.28 78.9228 96.1533 78.6562 95.9C78.4028 95.6333 78.2762 95.32 78.2762 94.96C78.2762 94.6 78.4028 94.2933 78.6562 94.04C78.9228 93.7733 79.2362 93.64 79.5962 93.64C79.9562 93.64 80.2628 93.7733 80.5162 94.04C80.7828 94.2933 80.9162 94.6 80.9162 94.96C80.9162 95.32 80.7828 95.6333 80.5162 95.9C80.2628 96.1533 79.9562 96.28 79.5962 96.28ZM85.4313 113.68C85.138 113.68 84.8913 113.58 84.6913 113.38C84.5047 113.193 84.4113 112.953 84.4113 112.66V103.54C84.4247 102.487 84.6713 101.54 85.1513 100.7C85.6313 99.86 86.2847 99.2 87.1113 98.72C87.938 98.2267 88.8713 97.98 89.9113 97.98C90.9647 97.98 91.9047 98.2267 92.7313 98.72C93.558 99.2 94.2113 99.86 94.6913 100.7C95.1847 101.54 95.4313 102.487 95.4313 103.54C95.4313 104.593 95.2047 105.54 94.7513 106.38C94.3113 107.207 93.7047 107.867 92.9313 108.36C92.158 108.84 91.2847 109.08 90.3113 109.08C89.5247 109.08 88.798 108.92 88.1313 108.6C87.478 108.267 86.918 107.82 86.4513 107.26V112.66C86.4513 112.953 86.358 113.193 86.1713 113.38C85.9847 113.58 85.738 113.68 85.4313 113.68ZM89.9113 107.28C90.5913 107.28 91.198 107.12 91.7313 106.8C92.2647 106.467 92.6847 106.02 92.9913 105.46C93.3113 104.887 93.4713 104.247 93.4713 103.54C93.4713 102.82 93.3113 102.18 92.9913 101.62C92.6847 101.047 92.2647 100.6 91.7313 100.28C91.198 99.9467 90.5913 99.78 89.9113 99.78C89.2447 99.78 88.638 99.9467 88.0913 100.28C87.558 100.6 87.138 101.047 86.8313 101.62C86.5247 102.18 86.3713 102.82 86.3713 103.54C86.3713 104.247 86.5247 104.887 86.8313 105.46C87.138 106.02 87.558 106.467 88.0913 106.8C88.638 107.12 89.2447 107.28 89.9113 107.28Z" fill="#E87B16"/>
<defs>
<clipPath id="clip0_1_634">
<rect width="87.6623" height="75" fill="white" transform="translate(4.66882)"/>
</clipPath>
</defs>
</svg>
