<svg width="156" height="115" viewBox="0 0 156 115" fill="none" xmlns="http://www.w3.org/2000/svg">
<path d="M52.3594 2.95306C52.2949 2.96478 52.2305 2.98236 52.1719 2.99994C51.4746 3.15814 50.9824 3.7851 51 4.49994V17.9999H64.5C65.0391 18.0058 65.543 17.7245 65.8184 17.2558C66.0879 16.787 66.0879 16.2128 65.8184 15.7441C65.543 15.2753 65.0391 14.9941 64.5 14.9999H55.9688C61.6523 9.43939 69.416 5.99994 78 5.99994C95.4141 5.99994 109.5 20.0859 109.5 37.4999C109.5 54.914 95.4141 68.9999 78 68.9999C60.5859 68.9999 46.5 54.914 46.5 37.4999C46.5 32.291 47.7832 27.3867 50.0156 23.0624L47.3438 21.7031C44.8945 26.4374 43.5 31.8105 43.5 37.4999C43.5 56.537 58.9629 71.9999 78 71.9999C97.0371 71.9999 112.5 56.537 112.5 37.4999C112.5 18.4628 97.0371 2.99994 78 2.99994C68.6602 2.99994 60.2109 6.7558 54 12.7968V4.49994C54.0176 4.06635 53.8418 3.65033 53.5312 3.35736C53.2148 3.05853 52.7871 2.91205 52.3594 2.95306ZM78 7.49994C77.1738 7.49994 76.5 8.17377 76.5 8.99994C76.5 9.82611 77.1738 10.4999 78 10.4999C78.8262 10.4999 79.5 9.82611 79.5 8.99994C79.5 8.17377 78.8262 7.49994 78 7.49994ZM92.25 11.2968C91.4238 11.2968 90.75 11.9706 90.75 12.7968C90.75 13.623 91.4238 14.2968 92.25 14.2968C93.0762 14.2968 93.75 13.623 93.75 12.7968C93.75 11.9706 93.0762 11.2968 92.25 11.2968ZM102.703 21.7499C101.877 21.7499 101.203 22.4238 101.203 23.2499C101.203 24.0761 101.877 24.7499 102.703 24.7499C103.529 24.7499 104.203 24.0761 104.203 23.2499C104.203 22.4238 103.529 21.7499 102.703 21.7499ZM68.0625 25.3593C63.9023 25.3593 60.9375 28.0722 60.9375 31.9687V32.0156H64.0312V31.9687C64.0312 29.7128 65.5898 28.2187 67.9219 28.2187C70.1016 28.2187 71.7656 29.6601 71.7656 31.5937C71.7656 33.1464 71.0801 34.2714 68.25 37.2187L61.125 44.6249V47.0156H75.375V44.0624H65.6719V43.8281L70.4062 39.0468C73.9512 35.4609 75 33.6445 75 31.4062C75 27.9199 72.0762 25.3593 68.0625 25.3593ZM87.8906 25.8749C84.123 31.5175 80.9707 36.4335 79.0781 39.8906V42.9374H89.3906V47.0156H92.5312V42.9374H95.4844V39.9843H92.5312V25.8749H87.8906ZM89.25 28.7812H89.4375V40.0781H82.2188V39.8437C84.709 35.5195 87.1582 31.8105 89.25 28.7812ZM49.5 35.9999C48.6738 35.9999 48 36.6738 48 37.4999C48 38.3261 48.6738 38.9999 49.5 38.9999C50.3262 38.9999 51 38.3261 51 37.4999C51 36.6738 50.3262 35.9999 49.5 35.9999ZM106.5 35.9999C105.674 35.9999 105 36.6738 105 37.4999C105 38.3261 105.674 38.9999 106.5 38.9999C107.326 38.9999 108 38.3261 108 37.4999C108 36.6738 107.326 35.9999 106.5 35.9999ZM53.2969 50.2499C52.4707 50.2499 51.7969 50.9238 51.7969 51.7499C51.7969 52.5761 52.4707 53.2499 53.2969 53.2499C54.123 53.2499 54.7969 52.5761 54.7969 51.7499C54.7969 50.9238 54.123 50.2499 53.2969 50.2499ZM102.703 50.2499C101.877 50.2499 101.203 50.9238 101.203 51.7499C101.203 52.5761 101.877 53.2499 102.703 53.2499C103.529 53.2499 104.203 52.5761 104.203 51.7499C104.203 50.9238 103.529 50.2499 102.703 50.2499ZM63.75 60.7031C62.9238 60.7031 62.25 61.3769 62.25 62.2031C62.25 63.0292 62.9238 63.7031 63.75 63.7031C64.5762 63.7031 65.25 63.0292 65.25 62.2031C65.25 61.3769 64.5762 60.7031 63.75 60.7031ZM92.25 60.7031C91.4238 60.7031 90.75 61.3769 90.75 62.2031C90.75 63.0292 91.4238 63.7031 92.25 63.7031C93.0762 63.7031 93.75 63.0292 93.75 62.2031C93.75 61.3769 93.0762 60.7031 92.25 60.7031ZM78 64.4999C77.1738 64.4999 76.5 65.1738 76.5 65.9999C76.5 66.8261 77.1738 67.4999 78 67.4999C78.8262 67.4999 79.5 66.8261 79.5 65.9999C79.5 65.1738 78.8262 64.4999 78 64.4999Z" fill="#12AEE0"/>
<path d="M9.40234 109.2C8.32234 109.2 7.30901 109 6.36234 108.6C5.42901 108.187 4.60901 107.62 3.90234 106.9C3.20901 106.167 2.66234 105.313 2.26234 104.34C1.87568 103.367 1.68234 102.313 1.68234 101.18C1.68234 100.06 1.87568 99.02 2.26234 98.06C2.66234 97.0867 3.20901 96.24 3.90234 95.52C4.60901 94.7867 5.42901 94.2133 6.36234 93.8C7.29568 93.3867 8.30901 93.18 9.40234 93.18C10.429 93.18 11.309 93.3133 12.0423 93.58C12.789 93.8467 13.5357 94.2867 14.2823 94.9C14.389 94.98 14.469 95.0667 14.5223 95.16C14.589 95.24 14.629 95.3267 14.6423 95.42C14.669 95.5 14.6823 95.6 14.6823 95.72C14.6823 95.9733 14.589 96.1867 14.4023 96.36C14.229 96.52 14.0157 96.6133 13.7623 96.64C13.509 96.6533 13.2623 96.5667 13.0223 96.38C12.529 95.9533 12.0157 95.6267 11.4823 95.4C10.9623 95.1733 10.269 95.06 9.40234 95.06C8.61568 95.06 7.87568 95.22 7.18234 95.54C6.48901 95.86 5.87568 96.3 5.34234 96.86C4.82234 97.42 4.41568 98.0733 4.12234 98.82C3.82901 99.5533 3.68234 100.34 3.68234 101.18C3.68234 102.033 3.82901 102.833 4.12234 103.58C4.41568 104.313 4.82234 104.96 5.34234 105.52C5.87568 106.08 6.48901 106.52 7.18234 106.84C7.87568 107.147 8.61568 107.3 9.40234 107.3C10.0823 107.3 10.7223 107.187 11.3223 106.96C11.9357 106.72 12.5223 106.393 13.0823 105.98C13.3223 105.807 13.5557 105.733 13.7823 105.76C14.0223 105.773 14.2223 105.867 14.3823 106.04C14.5423 106.2 14.6223 106.427 14.6223 106.72C14.6223 106.853 14.5957 106.987 14.5423 107.12C14.489 107.24 14.409 107.353 14.3023 107.46C13.5823 108.033 12.809 108.467 11.9823 108.76C11.169 109.053 10.309 109.2 9.40234 109.2ZM22.3492 109.1C21.4292 109.1 20.6026 108.907 19.8692 108.52C19.1492 108.12 18.5759 107.54 18.1492 106.78C17.7359 106.02 17.5292 105.087 17.5292 103.98V99.06C17.5292 98.7667 17.6226 98.5267 17.8092 98.34C18.0092 98.14 18.2559 98.04 18.5492 98.04C18.8426 98.04 19.0826 98.14 19.2692 98.34C19.4692 98.5267 19.5692 98.7667 19.5692 99.06V103.98C19.5692 104.727 19.7092 105.347 19.9892 105.84C20.2692 106.32 20.6492 106.68 21.1292 106.92C21.6092 107.147 22.1492 107.26 22.7492 107.26C23.3226 107.26 23.8292 107.147 24.2692 106.92C24.7226 106.693 25.0826 106.387 25.3492 106C25.6159 105.613 25.7492 105.18 25.7492 104.7H27.0092C27.0092 105.527 26.8026 106.273 26.3892 106.94C25.9892 107.607 25.4359 108.133 24.7292 108.52C24.0359 108.907 23.2426 109.1 22.3492 109.1ZM26.7692 109C26.4759 109 26.2292 108.907 26.0292 108.72C25.8426 108.52 25.7492 108.273 25.7492 107.98V99.06C25.7492 98.7533 25.8426 98.5067 26.0292 98.32C26.2292 98.1333 26.4759 98.04 26.7692 98.04C27.0759 98.04 27.3226 98.1333 27.5092 98.32C27.6959 98.5067 27.7892 98.7533 27.7892 99.06V107.98C27.7892 108.273 27.6959 108.52 27.5092 108.72C27.3226 108.907 27.0759 109 26.7692 109ZM35.362 109.08C34.4287 109.08 33.562 108.94 32.762 108.66C31.9754 108.367 31.362 108 30.922 107.56C30.722 107.347 30.6354 107.107 30.662 106.84C30.702 106.56 30.8354 106.333 31.062 106.16C31.3287 105.947 31.5887 105.86 31.842 105.9C32.1087 105.927 32.3354 106.04 32.522 106.24C32.7487 106.493 33.1087 106.733 33.602 106.96C34.1087 107.173 34.6687 107.28 35.282 107.28C36.0554 107.28 36.642 107.153 37.042 106.9C37.4554 106.647 37.6687 106.32 37.682 105.92C37.6954 105.52 37.502 105.173 37.102 104.88C36.7154 104.587 36.002 104.347 34.962 104.16C33.6154 103.893 32.6354 103.493 32.022 102.96C31.422 102.427 31.122 101.773 31.122 101C31.122 100.32 31.322 99.76 31.722 99.32C32.122 98.8667 32.6354 98.5333 33.262 98.32C33.8887 98.0933 34.542 97.98 35.222 97.98C36.102 97.98 36.882 98.12 37.562 98.4C38.242 98.68 38.782 99.0667 39.182 99.56C39.3687 99.7733 39.4554 100 39.442 100.24C39.4287 100.467 39.3154 100.66 39.102 100.82C38.8887 100.967 38.6354 101.013 38.342 100.96C38.0487 100.907 37.802 100.787 37.602 100.6C37.2687 100.28 36.9087 100.06 36.522 99.94C36.1354 99.82 35.6887 99.76 35.182 99.76C34.5954 99.76 34.0954 99.86 33.682 100.06C33.282 100.26 33.082 100.553 33.082 100.94C33.082 101.18 33.142 101.4 33.262 101.6C33.3954 101.787 33.6487 101.96 34.022 102.12C34.3954 102.267 34.942 102.413 35.662 102.56C36.662 102.76 37.4487 103.013 38.022 103.32C38.6087 103.627 39.0287 103.987 39.282 104.4C39.5354 104.8 39.662 105.267 39.662 105.8C39.662 106.413 39.4954 106.967 39.162 107.46C38.842 107.953 38.362 108.347 37.722 108.64C37.0954 108.933 36.3087 109.08 35.362 109.08ZM46.2214 109C45.5547 109 44.9547 108.833 44.4214 108.5C43.8881 108.153 43.4681 107.687 43.1614 107.1C42.8547 106.513 42.7014 105.853 42.7014 105.12V95.58C42.7014 95.2867 42.7947 95.0467 42.9814 94.86C43.1681 94.6733 43.4081 94.58 43.7014 94.58C43.9947 94.58 44.2347 94.6733 44.4214 94.86C44.6081 95.0467 44.7014 95.2867 44.7014 95.58V105.12C44.7014 105.653 44.8481 106.1 45.1414 106.46C45.4347 106.82 45.7947 107 46.2214 107H46.9014C47.1414 107 47.3414 107.093 47.5014 107.28C47.6747 107.467 47.7614 107.707 47.7614 108C47.7614 108.293 47.6481 108.533 47.4214 108.72C47.2081 108.907 46.9281 109 46.5814 109H46.2214ZM41.7814 100.18C41.5014 100.18 41.2747 100.1 41.1014 99.94C40.9281 99.78 40.8414 99.58 40.8414 99.34C40.8414 99.0733 40.9281 98.86 41.1014 98.7C41.2747 98.54 41.5014 98.46 41.7814 98.46H46.4014C46.6814 98.46 46.9081 98.54 47.0814 98.7C47.2547 98.86 47.3414 99.0733 47.3414 99.34C47.3414 99.58 47.2547 99.78 47.0814 99.94C46.9081 100.1 46.6814 100.18 46.4014 100.18H41.7814ZM55.2288 109.08C54.1488 109.08 53.1954 108.847 52.3688 108.38C51.5421 107.9 50.8888 107.247 50.4088 106.42C49.9421 105.58 49.7088 104.62 49.7088 103.54C49.7088 102.447 49.9421 101.487 50.4088 100.66C50.8888 99.82 51.5421 99.1667 52.3688 98.7C53.1954 98.22 54.1488 97.98 55.2288 97.98C56.2954 97.98 57.2421 98.22 58.0688 98.7C58.8954 99.1667 59.5421 99.82 60.0088 100.66C60.4888 101.487 60.7288 102.447 60.7288 103.54C60.7288 104.62 60.4954 105.58 60.0288 106.42C59.5621 107.247 58.9154 107.9 58.0888 108.38C57.2621 108.847 56.3088 109.08 55.2288 109.08ZM55.2288 107.28C55.9221 107.28 56.5354 107.12 57.0688 106.8C57.6021 106.48 58.0154 106.04 58.3088 105.48C58.6154 104.92 58.7688 104.273 58.7688 103.54C58.7688 102.807 58.6154 102.16 58.3088 101.6C58.0154 101.027 57.6021 100.58 57.0688 100.26C56.5354 99.94 55.9221 99.78 55.2288 99.78C54.5354 99.78 53.9221 99.94 53.3888 100.26C52.8554 100.58 52.4354 101.027 52.1288 101.6C51.8221 102.16 51.6688 102.807 51.6688 103.54C51.6688 104.273 51.8221 104.92 52.1288 105.48C52.4354 106.04 52.8554 106.48 53.3888 106.8C53.9221 107.12 54.5354 107.28 55.2288 107.28ZM78.1248 109.02C77.8315 109.02 77.5848 108.927 77.3848 108.74C77.1982 108.54 77.1048 108.293 77.1048 108V102.28C77.1048 101.44 76.8982 100.82 76.4848 100.42C76.0715 100.007 75.5315 99.8 74.8648 99.8C74.1715 99.8 73.5982 100.04 73.1448 100.52C72.7048 101 72.4848 101.613 72.4848 102.36H70.8248C70.8248 101.493 71.0115 100.733 71.3848 100.08C71.7582 99.4133 72.2782 98.8933 72.9448 98.52C73.6248 98.1467 74.3982 97.96 75.2648 97.96C76.0248 97.96 76.6982 98.1267 77.2848 98.46C77.8715 98.7933 78.3248 99.2867 78.6448 99.94C78.9782 100.58 79.1448 101.36 79.1448 102.28V108C79.1448 108.293 79.0515 108.54 78.8648 108.74C78.6782 108.927 78.4315 109.02 78.1248 109.02ZM64.7848 109.02C64.4915 109.02 64.2448 108.927 64.0448 108.74C63.8582 108.54 63.7648 108.293 63.7648 108V99.1C63.7648 98.7933 63.8582 98.5467 64.0448 98.36C64.2448 98.1733 64.4915 98.08 64.7848 98.08C65.0915 98.08 65.3382 98.1733 65.5248 98.36C65.7115 98.5467 65.8048 98.7933 65.8048 99.1V108C65.8048 108.293 65.7115 108.54 65.5248 108.74C65.3382 108.927 65.0915 109.02 64.7848 109.02ZM71.4648 109.02C71.1715 109.02 70.9248 108.927 70.7248 108.74C70.5382 108.54 70.4448 108.293 70.4448 108V102.28C70.4448 101.44 70.2382 100.82 69.8248 100.42C69.4115 100.007 68.8715 99.8 68.2048 99.8C67.5115 99.8 66.9382 100.04 66.4848 100.52C66.0315 101 65.8048 101.613 65.8048 102.36H64.5448C64.5448 101.493 64.7182 100.733 65.0648 100.08C65.4115 99.4133 65.8915 98.8933 66.5048 98.52C67.1182 98.1467 67.8182 97.96 68.6048 97.96C69.3648 97.96 70.0382 98.1267 70.6248 98.46C71.2115 98.7933 71.6648 99.2867 71.9848 99.94C72.3182 100.58 72.4848 101.36 72.4848 102.28V108C72.4848 108.293 72.3915 108.54 72.2048 108.74C72.0182 108.927 71.7715 109.02 71.4648 109.02ZM87.6744 109.08C86.5677 109.08 85.581 108.847 84.7144 108.38C83.861 107.9 83.1877 107.247 82.6944 106.42C82.2144 105.58 81.9744 104.62 81.9744 103.54C81.9744 102.447 82.201 101.487 82.6544 100.66C83.121 99.82 83.761 99.1667 84.5744 98.7C85.3877 98.22 86.321 97.98 87.3744 97.98C88.4144 97.98 89.3077 98.2133 90.0544 98.68C90.801 99.1333 91.3677 99.7667 91.7544 100.58C92.1544 101.38 92.3544 102.307 92.3544 103.36C92.3544 103.613 92.2677 103.827 92.0944 104C91.921 104.16 91.701 104.24 91.4344 104.24H83.3744V102.64H91.3744L90.5544 103.2C90.541 102.533 90.4077 101.94 90.1544 101.42C89.901 100.887 89.541 100.467 89.0744 100.16C88.6077 99.8533 88.041 99.7 87.3744 99.7C86.6144 99.7 85.961 99.8667 85.4144 100.2C84.881 100.533 84.4744 100.993 84.1944 101.58C83.9144 102.153 83.7744 102.807 83.7744 103.54C83.7744 104.273 83.941 104.927 84.2744 105.5C84.6077 106.073 85.0677 106.527 85.6544 106.86C86.241 107.193 86.9144 107.36 87.6744 107.36C88.0877 107.36 88.5077 107.287 88.9344 107.14C89.3744 106.98 89.7277 106.8 89.9944 106.6C90.1944 106.453 90.4077 106.38 90.6344 106.38C90.8744 106.367 91.081 106.433 91.2544 106.58C91.481 106.78 91.601 107 91.6144 107.24C91.6277 107.48 91.521 107.687 91.2944 107.86C90.841 108.22 90.2744 108.513 89.5944 108.74C88.9277 108.967 88.2877 109.08 87.6744 109.08ZM95.9363 102.16C95.9363 101.36 96.1296 100.647 96.5163 100.02C96.9163 99.38 97.4496 98.8733 98.1163 98.5C98.7829 98.1267 99.5163 97.94 100.316 97.94C101.116 97.94 101.71 98.0733 102.096 98.34C102.496 98.5933 102.65 98.9 102.556 99.26C102.516 99.4467 102.436 99.5933 102.316 99.7C102.21 99.7933 102.083 99.8533 101.936 99.88C101.79 99.9067 101.63 99.9 101.456 99.86C100.603 99.6867 99.8363 99.6733 99.1563 99.82C98.4763 99.9667 97.9363 100.24 97.5363 100.64C97.1496 101.04 96.9563 101.547 96.9563 102.16H95.9363ZM95.9563 109C95.6363 109 95.3896 108.92 95.2163 108.76C95.0429 108.587 94.9563 108.333 94.9563 108V99.06C94.9563 98.74 95.0429 98.4933 95.2163 98.32C95.3896 98.1467 95.6363 98.06 95.9563 98.06C96.2896 98.06 96.5363 98.1467 96.6963 98.32C96.8696 98.48 96.9563 98.7267 96.9563 99.06V108C96.9563 108.32 96.8696 108.567 96.6963 108.74C96.5363 108.913 96.2896 109 95.9563 109ZM115.502 109.08C114.436 109.08 113.482 108.84 112.642 108.36C111.816 107.867 111.162 107.207 110.682 106.38C110.216 105.54 109.982 104.593 109.982 103.54C109.982 102.46 110.216 101.5 110.682 100.66C111.149 99.82 111.789 99.1667 112.602 98.7C113.416 98.22 114.349 97.98 115.402 97.98C116.189 97.98 116.909 98.1333 117.562 98.44C118.216 98.7333 118.802 99.18 119.322 99.78C119.509 99.9933 119.576 100.213 119.522 100.44C119.469 100.667 119.322 100.867 119.082 101.04C118.896 101.173 118.689 101.22 118.462 101.18C118.236 101.127 118.029 101.007 117.842 100.82C117.189 100.127 116.376 99.78 115.402 99.78C114.722 99.78 114.122 99.94 113.602 100.26C113.082 100.567 112.676 101 112.382 101.56C112.089 102.12 111.942 102.78 111.942 103.54C111.942 104.26 112.089 104.9 112.382 105.46C112.689 106.02 113.109 106.467 113.642 106.8C114.176 107.12 114.796 107.28 115.502 107.28C115.969 107.28 116.376 107.227 116.722 107.12C117.082 107 117.409 106.82 117.702 106.58C117.916 106.407 118.136 106.313 118.362 106.3C118.589 106.273 118.789 106.333 118.962 106.48C119.189 106.667 119.316 106.88 119.342 107.12C119.369 107.347 119.289 107.553 119.102 107.74C118.142 108.633 116.942 109.08 115.502 109.08ZM127.114 109.08C126.141 109.08 125.267 108.84 124.494 108.36C123.721 107.867 123.107 107.207 122.654 106.38C122.214 105.54 121.994 104.593 121.994 103.54C121.994 102.487 122.234 101.54 122.714 100.7C123.207 99.86 123.867 99.2 124.694 98.72C125.534 98.2267 126.474 97.98 127.514 97.98C128.554 97.98 129.487 98.2267 130.314 98.72C131.141 99.2 131.794 99.86 132.274 100.7C132.767 101.54 133.014 102.487 133.014 103.54H132.234C132.234 104.593 132.007 105.54 131.554 106.38C131.114 107.207 130.507 107.867 129.734 108.36C128.961 108.84 128.087 109.08 127.114 109.08ZM127.514 107.28C128.194 107.28 128.801 107.12 129.334 106.8C129.867 106.467 130.287 106.02 130.594 105.46C130.901 104.887 131.054 104.247 131.054 103.54C131.054 102.82 130.901 102.18 130.594 101.62C130.287 101.047 129.867 100.6 129.334 100.28C128.801 99.9467 128.194 99.78 127.514 99.78C126.847 99.78 126.241 99.9467 125.694 100.28C125.161 100.6 124.734 101.047 124.414 101.62C124.107 102.18 123.954 102.82 123.954 103.54C123.954 104.247 124.107 104.887 124.414 105.46C124.734 106.02 125.161 106.467 125.694 106.8C126.241 107.12 126.847 107.28 127.514 107.28ZM131.994 109.02C131.701 109.02 131.454 108.927 131.254 108.74C131.067 108.54 130.974 108.293 130.974 108V104.94L131.354 102.82L133.014 103.54V108C133.014 108.293 132.914 108.54 132.714 108.74C132.527 108.927 132.287 109.02 131.994 109.02ZM137.03 102.16C137.03 101.36 137.223 100.647 137.61 100.02C138.01 99.38 138.543 98.8733 139.21 98.5C139.877 98.1267 140.61 97.94 141.41 97.94C142.21 97.94 142.803 98.0733 143.19 98.34C143.59 98.5933 143.743 98.9 143.65 99.26C143.61 99.4467 143.53 99.5933 143.41 99.7C143.303 99.7933 143.177 99.8533 143.03 99.88C142.883 99.9067 142.723 99.9 142.55 99.86C141.697 99.6867 140.93 99.6733 140.25 99.82C139.57 99.9667 139.03 100.24 138.63 100.64C138.243 101.04 138.05 101.547 138.05 102.16H137.03ZM137.05 109C136.73 109 136.483 108.92 136.31 108.76C136.137 108.587 136.05 108.333 136.05 108V99.06C136.05 98.74 136.137 98.4933 136.31 98.32C136.483 98.1467 136.73 98.06 137.05 98.06C137.383 98.06 137.63 98.1467 137.79 98.32C137.963 98.48 138.05 98.7267 138.05 99.06V108C138.05 108.32 137.963 108.567 137.79 108.74C137.63 108.913 137.383 109 137.05 109ZM150.116 109.08C149.009 109.08 148.022 108.847 147.156 108.38C146.302 107.9 145.629 107.247 145.136 106.42C144.656 105.58 144.416 104.62 144.416 103.54C144.416 102.447 144.642 101.487 145.096 100.66C145.562 99.82 146.202 99.1667 147.016 98.7C147.829 98.22 148.762 97.98 149.816 97.98C150.856 97.98 151.749 98.2133 152.496 98.68C153.242 99.1333 153.809 99.7667 154.196 100.58C154.596 101.38 154.796 102.307 154.796 103.36C154.796 103.613 154.709 103.827 154.536 104C154.362 104.16 154.142 104.24 153.876 104.24H145.816V102.64H153.816L152.996 103.2C152.982 102.533 152.849 101.94 152.596 101.42C152.342 100.887 151.982 100.467 151.516 100.16C151.049 99.8533 150.482 99.7 149.816 99.7C149.056 99.7 148.402 99.8667 147.856 100.2C147.322 100.533 146.916 100.993 146.636 101.58C146.356 102.153 146.216 102.807 146.216 103.54C146.216 104.273 146.382 104.927 146.716 105.5C147.049 106.073 147.509 106.527 148.096 106.86C148.682 107.193 149.356 107.36 150.116 107.36C150.529 107.36 150.949 107.287 151.376 107.14C151.816 106.98 152.169 106.8 152.436 106.6C152.636 106.453 152.849 106.38 153.076 106.38C153.316 106.367 153.522 106.433 153.696 106.58C153.922 106.78 154.042 107 154.056 107.24C154.069 107.48 153.962 107.687 153.736 107.86C153.282 108.22 152.716 108.513 152.036 108.74C151.369 108.967 150.729 109.08 150.116 109.08Z" fill="#12AEE0"/>
</svg>
