<svg width="31" height="31" viewBox="0 0 31 31" fill="none" xmlns="http://www.w3.org/2000/svg">
<path d="M9.1 0C4.081 0 0 4.081 0 9.1V21.7C0 26.719 4.081 30.8 9.1 30.8H21.7C26.719 30.8 30.8 26.719 30.8 21.7V9.1C30.8 4.081 26.719 0 21.7 0H9.1ZM23.8 5.6C24.57 5.6 25.2 6.23 25.2 7C25.2 7.77 24.57 8.4 23.8 8.4C23.03 8.4 22.4 7.77 22.4 7C22.4 6.23 23.03 5.6 23.8 5.6ZM15.4 7.7C19.649 7.7 23.1 11.151 23.1 15.4C23.1 19.649 19.649 23.1 15.4 23.1C11.151 23.1 7.7 19.649 7.7 15.4C7.7 11.151 11.151 7.7 15.4 7.7ZM15.4 9.1C11.928 9.1 9.1 11.928 9.1 15.4C9.1 18.872 11.928 21.7 15.4 21.7C18.872 21.7 21.7 18.872 21.7 15.4C21.7 11.928 18.872 9.1 15.4 9.1Z" fill="#F26C62"/>
</svg>
