<svg width="33" height="33" viewBox="0 0 33 33" fill="none" xmlns="http://www.w3.org/2000/svg">
<path d="M16.1 0C7.22251 0 0 7.22251 0 16.1C0 23.0189 4.3873 28.9312 10.5255 31.2039C10.3487 29.6278 10.3764 27.0466 10.6681 25.7968C10.9413 24.6229 12.433 18.3158 12.433 18.3158C12.433 18.3158 11.9827 17.414 11.9827 16.0821C11.9827 13.9889 13.1954 12.4272 14.7056 12.4272C15.99 12.4272 16.6094 13.3916 16.6094 14.547C16.6094 15.839 15.788 17.7688 15.3625 19.5574C15.0077 21.0561 16.1139 22.278 17.5911 22.278C20.2659 22.278 22.322 19.4573 22.322 15.3863C22.322 11.783 19.7334 9.26325 16.0363 9.26325C11.7546 9.26325 9.24125 12.4752 9.24125 15.7949C9.24125 17.0881 9.73907 18.475 10.3613 19.2298C10.484 19.3792 10.502 19.5094 10.4655 19.6611C10.3515 20.1363 10.098 21.1586 10.0476 21.3681C9.98218 21.6442 9.82935 21.7015 9.54455 21.5689C7.6645 20.6937 6.4894 17.946 6.4894 15.7382C6.4894 10.9911 9.93817 6.63065 16.434 6.63065C21.6552 6.63065 25.7123 10.3503 25.7123 15.3232C25.7123 20.5102 22.4413 24.6843 17.9025 24.6843C16.3773 24.6843 14.944 23.8919 14.4538 22.9558C14.4538 22.9558 13.699 25.8292 13.5155 26.5337C13.1987 27.752 11.843 30.2759 11.1624 31.4223C12.7193 31.9252 14.3779 32.2 16.1 32.2C24.9778 32.2 32.2 24.9778 32.2 16.1C32.2 7.22251 24.9778 0 16.1 0Z" fill="#F26C62"/>
</svg>
