<svg width="75" height="115" viewBox="0 0 75 115" fill="none" xmlns="http://www.w3.org/2000/svg">
<g clip-path="url(#clip0_1_640)">
<path d="M37.5001 4.5C28.4052 4.5 21.0001 11.9051 21.0001 21C21.0001 30.0949 28.4052 37.5 37.5001 37.5C46.595 37.5 54.0001 30.0949 54.0001 21C54.0001 11.9051 46.595 4.5 37.5001 4.5ZM37.5001 7.5C44.9737 7.5 51.0001 13.5264 51.0001 21C51.0001 28.4736 44.9737 34.5 37.5001 34.5C30.0265 34.5 24.0001 28.4736 24.0001 21C24.0001 13.5264 30.0265 7.5 37.5001 7.5ZM36.0001 10.5V13.1543C32.0281 13.8203 31.9015 17.3501 31.9015 17.7686C31.9015 21.4826 34.9078 22.1534 37.3243 22.6934C39.4933 23.1794 40.7198 23.5264 40.7198 24.9844C40.7198 25.8589 40.302 27.3281 37.503 27.3281C37.4415 27.3281 35.9863 27.3173 35.0743 26.4053C34.5358 25.8668 34.2754 25.0882 34.3009 24.0938L34.3038 24H31.5177L31.5206 24.0967C31.6106 27.2467 33.084 29.0466 36.003 29.6016V31.5H36.1466H38.8771H39.0001V29.6484C43.2691 28.9554 43.5001 25.6464 43.5001 24.9639C43.5016 21.3774 40.4952 20.6878 38.0802 20.1328C35.9112 19.6348 34.6847 19.2846 34.6847 17.9121C34.6847 16.2696 35.5926 15.5039 37.5441 15.5039C39.6681 15.5039 40.2273 16.8105 40.3038 18H43.087C43.0885 16.836 42.6158 15.5839 41.7833 14.6719C41.0543 13.8754 40.0967 13.3627 38.9972 13.1572V10.5H38.8771H36.1437H36.0001ZM20.1974 37.5C15.942 37.5 14.0096 38.5302 11.88 39.3721H11.8771C7.81685 40.981 0.849721 44.332 0.849721 44.332C0.671916 44.4174 0.512673 44.537 0.381085 44.6839C0.249498 44.8308 0.148144 45.0022 0.0828136 45.1883C0.0174831 45.3745 -0.0105445 45.5716 0.000331732 45.7685C0.0112079 45.9655 0.0607748 46.1583 0.146201 46.3361C0.231628 46.5139 0.35124 46.6731 0.498207 46.8047C0.645173 46.9362 0.816615 47.0375 1.00274 47.1028C1.18886 47.1681 1.38602 47.196 1.58296 47.1851C1.7799 47.1742 1.97275 47.1245 2.1505 47.0391C2.1505 47.0391 9.16019 43.6757 12.9816 42.1611C15.322 41.236 16.3798 40.5 20.1974 40.5C28.6224 40.5 28.3945 44.2823 31.8458 46.3535H31.8487C33.0869 47.0961 35.0026 47.704 37.1925 48.2607C37.4189 48.3872 37.6743 48.4528 37.9337 48.4512H37.9366C40.3989 49.0468 43.0044 49.5 45.0001 49.5C46.7532 49.5 47.9918 49.8362 48.6505 50.25C49.3092 50.6638 49.5001 51.0052 49.5001 51.75C49.5001 52.6231 49.2992 52.9213 48.6417 53.3115C47.9843 53.7017 46.726 54 45.0001 54H36.2989C32.6259 54 27.4132 52.5586 27.4132 52.5586C27.2219 52.4973 27.0202 52.4751 26.8201 52.4932C26.62 52.5113 26.4256 52.5695 26.2484 52.6642C26.0712 52.7589 25.9148 52.8882 25.7886 53.0445C25.6623 53.2007 25.5687 53.3808 25.5134 53.5739C25.458 53.7671 25.442 53.9693 25.4664 54.1688C25.4907 54.3682 25.5548 54.5607 25.6549 54.7349C25.7551 54.9091 25.8892 55.0614 26.0493 55.1827C26.2094 55.3041 26.3923 55.3921 26.587 55.4414C26.587 55.4414 31.884 57 36.2989 57H45.0001C47.0303 57 48.7704 56.7256 50.1739 55.8926C50.5958 55.6422 50.9672 55.318 51.2902 54.9492C51.4029 54.9066 51.5101 54.8505 51.6095 54.7822L65.1007 45.709C67.4399 44.3212 69.053 43.927 70.0138 43.9453C70.9749 43.9636 71.3388 44.268 71.6456 44.6689C72.0904 45.2508 72.1253 45.5594 71.8361 46.2451C71.5468 46.9308 70.72 47.9203 69.2726 48.9463C67.4715 50.2242 47.6517 63.3894 45.3224 64.7373C43.5987 65.7363 42.209 66.7999 40.6202 67.251C39.032 67.7019 37.1533 67.6968 34.0812 66.2021H34.0782C32.0264 65.2026 23.3591 60.6761 20.546 59.2236C18.9915 58.4202 17.6809 57.9763 16.3419 58.0518C15.0029 58.1272 13.8689 58.7113 12.6769 59.4727C12.6729 59.4756 12.669 59.4785 12.6652 59.4814L8.61925 62.1211C8.45173 62.2275 8.30698 62.3661 8.1934 62.5288C8.07982 62.6916 7.99965 62.8752 7.95756 63.0692C7.91546 63.2631 7.91227 63.4635 7.94816 63.6587C7.98405 63.8539 8.05832 64.04 8.16665 64.2063C8.27499 64.3726 8.41524 64.5157 8.57929 64.6274C8.74334 64.7391 8.92791 64.8171 9.12233 64.857C9.31675 64.8968 9.51715 64.8977 9.71191 64.8596C9.90667 64.8214 10.0919 64.745 10.2569 64.6348L14.3058 61.9951C15.3393 61.3367 15.9507 61.0804 16.5118 61.0488C17.0767 61.017 17.8301 61.1976 19.1691 61.8896C21.9565 63.3289 30.5107 67.799 32.7657 68.8975C36.3082 70.6217 39.157 70.7851 41.4405 70.1367C43.724 69.4883 45.3525 68.1866 46.8253 67.333C49.95 65.5249 68.749 52.9947 71.0069 51.3926V51.3955C72.7275 50.1759 73.9711 48.8989 74.5987 47.4111C75.2264 45.9233 75.0242 44.1504 74.0275 42.8467C73.2438 41.8226 71.8439 40.9791 70.0694 40.9453C68.8145 40.9214 67.3133 41.3957 65.6603 42.1377C65.5978 41.8377 65.7436 41.5065 65.6105 41.2178C65.1005 40.1115 63.964 39.3322 62.6866 39.0791H62.6837C61.008 38.7478 59.1103 39.264 57.2316 40.1279C57.0978 39.7207 56.9958 39.2938 56.7247 38.9707C55.9203 38.012 54.7632 37.6714 53.6866 37.5879C51.5335 37.421 49.2938 38.124 47.6749 39.0879C45.4281 40.425 38.714 44.6745 37.7374 45.293C35.7324 44.7526 33.9252 44.0994 33.3898 43.7783V43.7812C32.0171 42.9574 29.6554 37.5 20.1974 37.5ZM53.4552 40.5791C54.0547 40.6256 54.3414 40.7989 54.4249 40.8984C54.4885 40.9742 54.588 41.1155 54.5421 41.5576L47.1359 46.6641C46.4648 46.565 45.7638 46.5 45.0001 46.5C44.2063 46.5 43.12 46.3808 41.9357 46.1924C44.5455 44.5461 47.7802 42.5123 49.2071 41.6631C50.2133 41.064 52.2562 40.4862 53.4552 40.5791ZM61.1046 41.9971C61.5013 41.9604 61.8435 41.9691 62.1036 42.0205C62.7267 42.144 62.7868 42.2597 62.8859 42.4746C62.9595 42.6343 62.982 43.0361 62.9298 43.5527L52.3624 50.6602C52.1004 49.5784 51.4606 48.6125 50.5665 47.9414L56.7569 43.6758C56.8102 43.64 56.8611 43.6009 56.9093 43.5586C58.3375 42.6015 59.9517 42.1035 61.1046 41.9971Z" fill="#06C825"/>
</g>
<path d="M5.50094 109C5.2076 109 4.96094 108.9 4.76094 108.7C4.56094 108.5 4.46094 108.253 4.46094 107.96V94.42C4.46094 94.1133 4.56094 93.8667 4.76094 93.68C4.96094 93.48 5.2076 93.38 5.50094 93.38H9.10094C10.1009 93.38 10.9876 93.5933 11.7609 94.02C12.5343 94.4333 13.1343 95.0067 13.5609 95.74C14.0009 96.4733 14.2209 97.3267 14.2209 98.3C14.2209 99.2067 14.0009 100.013 13.5609 100.72C13.1343 101.427 12.5343 101.98 11.7609 102.38C10.9876 102.78 10.1009 102.98 9.10094 102.98H6.54094V107.96C6.54094 108.253 6.44094 108.5 6.24094 108.7C6.05427 108.9 5.8076 109 5.50094 109ZM13.8009 109C13.6143 109 13.4409 108.96 13.2809 108.88C13.1343 108.8 13.0076 108.673 12.9009 108.5L9.30094 102.7L11.3209 102.12L14.6009 107.4C14.8409 107.787 14.8743 108.153 14.7009 108.5C14.5276 108.833 14.2276 109 13.8009 109ZM6.54094 101.06H9.10094C9.71427 101.06 10.2543 100.947 10.7209 100.72C11.1876 100.48 11.5543 100.153 11.8209 99.74C12.0876 99.3133 12.2209 98.8333 12.2209 98.3C12.2209 97.7133 12.0876 97.1933 11.8209 96.74C11.5543 96.2867 11.1876 95.9333 10.7209 95.68C10.2543 95.4267 9.71427 95.3 9.10094 95.3H6.54094V101.06ZM22.0377 109.08C20.931 109.08 19.9443 108.847 19.0777 108.38C18.2243 107.9 17.551 107.247 17.0577 106.42C16.5777 105.58 16.3377 104.62 16.3377 103.54C16.3377 102.447 16.5643 101.487 17.0177 100.66C17.4843 99.82 18.1243 99.1667 18.9377 98.7C19.751 98.22 20.6843 97.98 21.7377 97.98C22.7777 97.98 23.671 98.2133 24.4177 98.68C25.1643 99.1333 25.731 99.7667 26.1177 100.58C26.5177 101.38 26.7177 102.307 26.7177 103.36C26.7177 103.613 26.631 103.827 26.4577 104C26.2843 104.16 26.0643 104.24 25.7977 104.24H17.7377V102.64H25.7377L24.9177 103.2C24.9043 102.533 24.771 101.94 24.5177 101.42C24.2643 100.887 23.9043 100.467 23.4377 100.16C22.971 99.8533 22.4043 99.7 21.7377 99.7C20.9777 99.7 20.3243 99.8667 19.7777 100.2C19.2443 100.533 18.8377 100.993 18.5577 101.58C18.2777 102.153 18.1377 102.807 18.1377 103.54C18.1377 104.273 18.3043 104.927 18.6377 105.5C18.971 106.073 19.431 106.527 20.0177 106.86C20.6043 107.193 21.2777 107.36 22.0377 107.36C22.451 107.36 22.871 107.287 23.2977 107.14C23.7377 106.98 24.091 106.8 24.3577 106.6C24.5577 106.453 24.771 106.38 24.9977 106.38C25.2377 106.367 25.4443 106.433 25.6177 106.58C25.8443 106.78 25.9643 107 25.9777 107.24C25.991 107.48 25.8843 107.687 25.6577 107.86C25.2043 108.22 24.6377 108.513 23.9577 108.74C23.291 108.967 22.651 109.08 22.0377 109.08ZM33.2995 109C32.6329 109 32.0329 108.833 31.4995 108.5C30.9662 108.153 30.5462 107.687 30.2395 107.1C29.9329 106.513 29.7795 105.853 29.7795 105.12V95.58C29.7795 95.2867 29.8729 95.0467 30.0595 94.86C30.2462 94.6733 30.4862 94.58 30.7795 94.58C31.0729 94.58 31.3129 94.6733 31.4995 94.86C31.6862 95.0467 31.7795 95.2867 31.7795 95.58V105.12C31.7795 105.653 31.9262 106.1 32.2195 106.46C32.5129 106.82 32.8729 107 33.2995 107H33.9795C34.2195 107 34.4195 107.093 34.5795 107.28C34.7529 107.467 34.8395 107.707 34.8395 108C34.8395 108.293 34.7262 108.533 34.4995 108.72C34.2862 108.907 34.0062 109 33.6595 109H33.2995ZM28.8595 100.18C28.5795 100.18 28.3529 100.1 28.1795 99.94C28.0062 99.78 27.9195 99.58 27.9195 99.34C27.9195 99.0733 28.0062 98.86 28.1795 98.7C28.3529 98.54 28.5795 98.46 28.8595 98.46H33.4795C33.7595 98.46 33.9862 98.54 34.1595 98.7C34.3329 98.86 34.4195 99.0733 34.4195 99.34C34.4195 99.58 34.3329 99.78 34.1595 99.94C33.9862 100.1 33.7595 100.18 33.4795 100.18H28.8595ZM41.9469 109.1C41.0269 109.1 40.2002 108.907 39.4669 108.52C38.7469 108.12 38.1735 107.54 37.7469 106.78C37.3335 106.02 37.1269 105.087 37.1269 103.98V99.06C37.1269 98.7667 37.2202 98.5267 37.4069 98.34C37.6069 98.14 37.8535 98.04 38.1469 98.04C38.4402 98.04 38.6802 98.14 38.8669 98.34C39.0669 98.5267 39.1669 98.7667 39.1669 99.06V103.98C39.1669 104.727 39.3069 105.347 39.5869 105.84C39.8669 106.32 40.2469 106.68 40.7269 106.92C41.2069 107.147 41.7469 107.26 42.3469 107.26C42.9202 107.26 43.4269 107.147 43.8669 106.92C44.3202 106.693 44.6802 106.387 44.9469 106C45.2135 105.613 45.3469 105.18 45.3469 104.7H46.6069C46.6069 105.527 46.4002 106.273 45.9869 106.94C45.5869 107.607 45.0335 108.133 44.3269 108.52C43.6335 108.907 42.8402 109.1 41.9469 109.1ZM46.3669 109C46.0735 109 45.8269 108.907 45.6269 108.72C45.4402 108.52 45.3469 108.273 45.3469 107.98V99.06C45.3469 98.7533 45.4402 98.5067 45.6269 98.32C45.8269 98.1333 46.0735 98.04 46.3669 98.04C46.6735 98.04 46.9202 98.1333 47.1069 98.32C47.2935 98.5067 47.3869 98.7533 47.3869 99.06V107.98C47.3869 108.273 47.2935 108.52 47.1069 108.72C46.9202 108.907 46.6735 109 46.3669 109ZM51.9597 102.16C51.9597 101.36 52.153 100.647 52.5397 100.02C52.9397 99.38 53.473 98.8733 54.1397 98.5C54.8064 98.1267 55.5397 97.94 56.3397 97.94C57.1397 97.94 57.733 98.0733 58.1197 98.34C58.5197 98.5933 58.673 98.9 58.5797 99.26C58.5397 99.4467 58.4597 99.5933 58.3397 99.7C58.233 99.7933 58.1064 99.8533 57.9597 99.88C57.813 99.9067 57.653 99.9 57.4797 99.86C56.6264 99.6867 55.8597 99.6733 55.1797 99.82C54.4997 99.9667 53.9597 100.24 53.5597 100.64C53.173 101.04 52.9797 101.547 52.9797 102.16H51.9597ZM51.9797 109C51.6597 109 51.413 108.92 51.2397 108.76C51.0664 108.587 50.9797 108.333 50.9797 108V99.06C50.9797 98.74 51.0664 98.4933 51.2397 98.32C51.413 98.1467 51.6597 98.06 51.9797 98.06C52.313 98.06 52.5597 98.1467 52.7197 98.32C52.893 98.48 52.9797 98.7267 52.9797 99.06V108C52.9797 108.32 52.893 108.567 52.7197 108.74C52.5597 108.913 52.313 109 51.9797 109ZM69.9463 109.02C69.6529 109.02 69.4063 108.927 69.2063 108.74C69.0196 108.54 68.9263 108.293 68.9263 108V103.08C68.9263 102.32 68.7863 101.7 68.5063 101.22C68.2263 100.74 67.8463 100.387 67.3663 100.16C66.8996 99.92 66.3596 99.8 65.7463 99.8C65.1863 99.8 64.6796 99.9133 64.2263 100.14C63.7729 100.367 63.4129 100.673 63.1463 101.06C62.8796 101.433 62.7463 101.867 62.7463 102.36H61.4863C61.4863 101.52 61.6863 100.773 62.0863 100.12C62.4996 99.4533 63.0596 98.9267 63.7663 98.54C64.4729 98.1533 65.2663 97.96 66.1463 97.96C67.0663 97.96 67.8863 98.16 68.6063 98.56C69.3396 98.9467 69.9129 99.52 70.3263 100.28C70.7529 101.04 70.9663 101.973 70.9663 103.08V108C70.9663 108.293 70.8663 108.54 70.6662 108.74C70.4796 108.927 70.2396 109.02 69.9463 109.02ZM61.7263 109.02C61.4329 109.02 61.1863 108.927 60.9863 108.74C60.7996 108.54 60.7063 108.293 60.7063 108V99.08C60.7063 98.7733 60.7996 98.5267 60.9863 98.34C61.1863 98.1533 61.4329 98.06 61.7263 98.06C62.0329 98.06 62.2796 98.1533 62.4663 98.34C62.6529 98.5267 62.7463 98.7733 62.7463 99.08V108C62.7463 108.293 62.6529 108.54 62.4663 108.74C62.2796 108.927 62.0329 109.02 61.7263 109.02Z" fill="#06C825"/>
<defs>
<clipPath id="clip0_1_640">
<rect width="75" height="75" fill="white"/>
</clipPath>
</defs>
</svg>
