<svg width="15" height="16" viewBox="0 0 15 16" fill="none" xmlns="http://www.w3.org/2000/svg">
<path fill-rule="evenodd" clip-rule="evenodd" d="M9.67416 11.7217C8.68008 12.4926 7.44031 12.9501 6.09593 12.9501C2.8247 12.9501 0.172852 10.2414 0.172852 6.9001C0.172852 3.55877 2.8247 0.850098 6.09593 0.850098C9.36715 0.850098 12.019 3.55877 12.019 6.9001C12.019 8.27329 11.5711 9.53962 10.8164 10.555L13.9363 13.7417C14.2517 14.0639 14.2517 14.5863 13.9363 14.9085C13.6209 15.2306 13.1095 15.2306 12.794 14.9085L9.67416 11.7217ZM10.4036 6.9001C10.4036 9.33015 8.475 11.3001 6.09593 11.3001C3.71686 11.3001 1.78824 9.33015 1.78824 6.9001C1.78824 4.47004 3.71686 2.5001 6.09593 2.5001C8.475 2.5001 10.4036 4.47004 10.4036 6.9001Z" fill="#F2F2F2"/>
</svg>
