<svg width="35" height="30" viewBox="0 0 35 30" fill="none" xmlns="http://www.w3.org/2000/svg">
<g clip-path="url(#clip0_2029_601)">
<path fill-rule="evenodd" clip-rule="evenodd" d="M2.5 5.7931C2.5 5.07894 3.07894 4.5 3.7931 4.5H6.57239C8.07574 4.5 9.34552 5.6057 9.5587 7.08621H26.2069C26.5671 7.08621 26.9109 7.23643 27.1557 7.50071C27.4004 7.76499 27.5238 8.11936 27.4962 8.47849L26.879 16.5016C26.689 18.9718 24.6292 20.8793 22.1516 20.8793H11.2017L11.3617 22.2234C11.3875 22.4402 11.5713 22.6034 11.7897 22.6034H22.7586C23.4728 22.6034 24.0517 23.1824 24.0517 23.8965C24.0517 24.6107 23.4728 25.1897 22.7586 25.1897H11.7897C10.2613 25.1897 8.97427 24.0468 8.79359 22.5291L7.0004 7.46629C6.97459 7.24947 6.79073 7.08621 6.57239 7.08621H3.7931C3.07894 7.08621 2.5 6.50726 2.5 5.7931ZM10.8938 18.2931H22.1516C23.2778 18.2931 24.2141 17.4261 24.3004 16.3032L24.8105 9.67241H9.8675L10.8938 18.2931ZM15.431 28.6383C15.431 29.5905 14.6591 30.3624 13.7069 30.3624C12.7546 30.3624 11.9827 29.5905 11.9827 28.6383C11.9827 27.6861 12.7546 26.9141 13.7069 26.9141C14.6591 26.9141 15.431 27.6861 15.431 28.6383ZM24.0517 28.6383C24.0517 29.5905 23.2798 30.3624 22.3276 30.3624C21.3754 30.3624 20.6034 29.5905 20.6034 28.6383C20.6034 27.6861 21.3754 26.9141 22.3276 26.9141C23.2798 26.9141 24.0517 27.6861 24.0517 28.6383Z" fill="#4A4A4A"/>
</g>
<circle cx="26.6729" cy="8" r="7.5" fill="#E3B110"/>
<path d="M25.3748 5.25V4.21H27.4548V11.5H26.3048V5.25H25.3748Z" fill="black"/>
<defs>
<clipPath id="clip0_2029_601">
<rect width="28" height="28" fill="white" transform="translate(0 1.5)"/>
</clipPath>
</defs>
</svg>
