<svg width="20" height="20" viewBox="0 0 20 20" fill="none" xmlns="http://www.w3.org/2000/svg">
<path d="M10 5.41675L11.2083 7.87508L11.5833 8.66675L12.4583 8.79175L15.1667 9.16675L13.2083 11.0834L12.5833 11.7084L12.75 12.5834L13.2083 15.2917L10.7917 14.0001L10 13.5834L9.20833 14.0001L6.79167 15.2917L7.25 12.5834L7.41667 11.7084L6.79167 11.0834L4.83333 9.16675L7.54167 8.79175L8.41667 8.66675L8.79167 7.87508L10 5.41675ZM10 1.66675L7.29167 7.16675L1.25 8.04175L5.625 12.2917L4.58333 18.3334L10 15.5001L15.4167 18.3334L14.375 12.2917L18.75 8.04175L12.7083 7.16675L10 1.66675Z" fill="#FFCA28"/>
</svg>
