<svg width="33" height="33" viewBox="0 0 33 33" fill="none" xmlns="http://www.w3.org/2000/svg">
<path d="M16.1 0C7.2219 0 0 7.2219 0 16.1C0 24.9781 7.2219 32.2 16.1 32.2C24.9781 32.2 32.2 24.9781 32.2 16.1C32.2 7.2219 24.9781 0 16.1 0ZM23.9659 12.9668C23.9729 13.132 23.9771 13.3 23.9771 13.4687C23.9771 18.5913 20.076 24.5 12.9437 24.5C10.7541 24.5 8.715 23.8581 7 22.7577C7.3031 22.7941 7.6104 22.8116 7.9247 22.8116C9.7419 22.8116 11.4142 22.1928 12.74 21.1526C11.0432 21.1218 9.6124 19.9983 9.1175 18.4597C9.3548 18.5052 9.5977 18.5297 9.8483 18.5297C10.2018 18.5297 10.5448 18.4828 10.8689 18.3932C9.0965 18.0355 7.7602 16.4703 7.7602 14.5908C7.7602 14.574 7.7602 14.5579 7.7602 14.5418C8.2831 14.8323 8.8802 15.0073 9.5165 15.0276C8.4749 14.3311 7.7917 13.1453 7.7917 11.7999C7.7917 11.0894 7.9821 10.4237 8.316 9.8497C10.2291 12.1954 13.0865 13.7389 16.3086 13.9013C16.2421 13.6171 16.2071 13.3217 16.2071 13.0179C16.2071 10.8766 17.9431 9.1406 20.0851 9.1406C21.2002 9.1406 22.2075 9.611 22.9145 10.3649C23.7972 10.1913 24.6281 9.8686 25.3771 9.4248C25.088 10.3292 24.4727 11.0894 23.6712 11.5696C24.4566 11.4744 25.2028 11.2672 25.8993 10.9585C25.3799 11.7362 24.7226 12.4201 23.9659 12.9668Z" fill="#F26C62"/>
</svg>
