<svg width="23" height="23" viewBox="0 0 23 23" fill="none" xmlns="http://www.w3.org/2000/svg">
<path d="M1.00135 0C0.448606 0 0 0.448606 0 1.00135V5.00676C0 5.55951 0.448606 6.00811 1.00135 6.00811H6.00811C6.56086 6.00811 7.00947 5.55951 7.00947 5.00676V1.00135C7.00947 0.448606 6.56086 0 6.00811 0H1.00135ZM11.0149 2.0027C10.8822 2.00083 10.7504 2.02534 10.6273 2.07482C10.5042 2.1243 10.3921 2.19776 10.2976 2.29093C10.2031 2.3841 10.1281 2.49513 10.0769 2.61755C10.0256 2.73997 9.99926 2.87135 9.99926 3.00406C9.99926 3.13676 10.0256 3.26814 10.0769 3.39056C10.1281 3.51299 10.2031 3.62401 10.2976 3.71718C10.3921 3.81035 10.5042 3.88381 10.6273 3.93329C10.7504 3.98277 10.8822 4.00729 11.0149 4.00541H21.0284C21.1611 4.00729 21.2928 3.98277 21.416 3.93329C21.5391 3.88381 21.6512 3.81035 21.7457 3.71718C21.8402 3.62401 21.9152 3.51299 21.9664 3.39056C22.0176 3.26814 22.044 3.13676 22.044 3.00406C22.044 2.87135 22.0176 2.73997 21.9664 2.61755C21.9152 2.49513 21.8402 2.3841 21.7457 2.29093C21.6512 2.19776 21.5391 2.1243 21.416 2.07482C21.2928 2.02534 21.1611 2.00083 21.0284 2.0027H11.0149ZM1.00135 8.01082C0.448606 8.01082 0 8.45942 0 9.01217V13.0176C0 13.5703 0.448606 14.0189 1.00135 14.0189H6.00811C6.56086 14.0189 7.00947 13.5703 7.00947 13.0176V9.01217C7.00947 8.45942 6.56086 8.01082 6.00811 8.01082H1.00135ZM11.0149 10.0135C10.8822 10.0116 10.7504 10.0362 10.6273 10.0856C10.5042 10.1351 10.3921 10.2086 10.2976 10.3018C10.2031 10.3949 10.1281 10.5059 10.0769 10.6284C10.0256 10.7508 9.99926 10.8822 9.99926 11.0149C9.99926 11.1476 10.0256 11.279 10.0769 11.4014C10.1281 11.5238 10.2031 11.6348 10.2976 11.728C10.3921 11.8212 10.5042 11.8946 10.6273 11.9441C10.7504 11.9936 10.8822 12.0181 11.0149 12.0162H21.0284C21.1611 12.0181 21.2928 11.9936 21.416 11.9441C21.5391 11.8946 21.6512 11.8212 21.7457 11.728C21.8402 11.6348 21.9152 11.5238 21.9664 11.4014C22.0176 11.279 22.044 11.1476 22.044 11.0149C22.044 10.8822 22.0176 10.7508 21.9664 10.6284C21.9152 10.5059 21.8402 10.3949 21.7457 10.3018C21.6512 10.2086 21.5391 10.1351 21.416 10.0856C21.2928 10.0362 21.1611 10.0116 21.0284 10.0135H11.0149ZM1.00135 16.0216C0.448606 16.0216 0 16.4702 0 17.023V21.0284C0 21.5811 0.448606 22.0298 1.00135 22.0298H6.00811C6.56086 22.0298 7.00947 21.5811 7.00947 21.0284V17.023C7.00947 16.4702 6.56086 16.0216 6.00811 16.0216H1.00135ZM11.0149 18.0243C10.8822 18.0225 10.7504 18.047 10.6273 18.0965C10.5042 18.1459 10.3921 18.2194 10.2976 18.3126C10.2031 18.4057 10.1281 18.5168 10.0769 18.6392C10.0256 18.7616 9.99926 18.893 9.99926 19.0257C9.99926 19.1584 10.0256 19.2898 10.0769 19.4122C10.1281 19.5346 10.2031 19.6456 10.2976 19.7388C10.3921 19.832 10.5042 19.9054 10.6273 19.9549C10.7504 20.0044 10.8822 20.0289 11.0149 20.027H21.0284C21.1611 20.0289 21.2928 20.0044 21.416 19.9549C21.5391 19.9054 21.6512 19.832 21.7457 19.7388C21.8402 19.6456 21.9152 19.5346 21.9664 19.4122C22.0176 19.2898 22.044 19.1584 22.044 19.0257C22.044 18.893 22.0176 18.7616 21.9664 18.6392C21.9152 18.5168 21.8402 18.4057 21.7457 18.3126C21.6512 18.2194 21.5391 18.1459 21.416 18.0965C21.2928 18.047 21.1611 18.0225 21.0284 18.0243H11.0149Z" fill="#A4AAAC"/>
</svg>
