<svg width="23" height="23" viewBox="0 0 23 23" fill="none" xmlns="http://www.w3.org/2000/svg">
<path d="M2.50338 0C1.12277 0 0 1.12277 0 2.50338V7.51014C0 8.89076 1.12277 10.0135 2.50338 10.0135H7.51014C8.89076 10.0135 10.0135 8.89076 10.0135 7.51014V2.50338C10.0135 1.12277 8.89076 0 7.51014 0H2.50338ZM15.0203 0C13.6397 0 12.5169 1.12277 12.5169 2.50338V7.51014C12.5169 8.89076 13.6397 10.0135 15.0203 10.0135H20.027C21.4077 10.0135 22.5304 8.89076 22.5304 7.51014V2.50338C22.5304 1.12277 21.4077 0 20.027 0H15.0203ZM3.75507 3.75507H6.25845V6.25845H3.75507V3.75507ZM17.5237 3.75507C18.2146 3.75507 18.7754 4.31583 18.7754 5.00676C18.7754 5.69769 18.2146 6.25845 17.5237 6.25845C16.8327 6.25845 16.272 5.69769 16.272 5.00676C16.272 4.31583 16.8327 3.75507 17.5237 3.75507ZM2.50338 12.5169C1.12277 12.5169 0 13.6397 0 15.0203V20.027C0 21.4077 1.12277 22.5304 2.50338 22.5304H7.51014C8.89076 22.5304 10.0135 21.4077 10.0135 20.027V15.0203C10.0135 13.6397 8.89076 12.5169 7.51014 12.5169H2.50338ZM15.0203 12.5169C13.6397 12.5169 12.5169 13.6397 12.5169 15.0203V20.027C12.5169 21.4077 13.6397 22.5304 15.0203 22.5304H20.027C21.4077 22.5304 22.5304 21.4077 22.5304 20.027V15.0203C22.5304 13.6397 21.4077 12.5169 20.027 12.5169H15.0203ZM5.00676 16.272C5.69769 16.272 6.25845 16.8327 6.25845 17.5237C6.25845 18.2146 5.69769 18.7754 5.00676 18.7754C4.31583 18.7754 3.75507 18.2146 3.75507 17.5237C3.75507 16.8327 4.31583 16.272 5.00676 16.272ZM16.272 16.272H18.7754V18.7754H16.272V16.272Z" fill="#0F83B2"/>
</svg>
